<?xml version="1.0" encoding="UTF-8" standalone="no"?>
<!-- Generator: Gravit.io -->
<svg xmlns="http://www.w3.org/2000/svg" xmlns:xlink="http://www.w3.org/1999/xlink" style="isolation:isolate" viewBox="0 0 77 29.64" width="77pt" height="29.64pt"><path d=" M 5.32 24.04 L 5.32 24.04 Q 2.92 24.04 1.94 22.61 L 1.94 22.61 L 1.94 22.61 Q 0.96 21.18 0.96 18.66 L 0.96 18.66 L 0.96 12.94 L 0.96 12.94 Q 0.96 10.28 1.92 8.9 L 1.92 8.9 L 1.92 8.9 Q 2.88 7.52 5.32 7.52 L 5.32 7.52 L 5.32 7.52 Q 7.5 7.52 8.45 8.7 L 8.45 8.7 L 8.45 8.7 Q 9.4 9.88 9.4 12.18 L 9.4 12.18 L 9.4 13.46 L 7.26 13.46 L 7.26 12.32 L 7.26 12.32 Q 7.26 11.2 7.16 10.6 L 7.16 10.6 L 7.16 10.6 Q 7.06 10 6.65 9.64 L 6.65 9.64 L 6.65 9.64 Q 6.24 9.28 5.34 9.28 L 5.34 9.28 L 5.34 9.28 Q 4.42 9.28 3.97 9.67 L 3.97 9.67 L 3.97 9.67 Q 3.52 10.06 3.38 10.75 L 3.38 10.75 L 3.38 10.75 Q 3.24 11.44 3.24 12.6 L 3.24 12.6 L 3.24 19.02 L 3.24 19.02 Q 3.24 20.26 3.44 20.96 L 3.44 20.96 L 3.44 20.96 Q 3.64 21.66 4.09 21.96 L 4.09 21.96 L 4.09 21.96 Q 4.54 22.26 5.34 22.26 L 5.34 22.26 L 5.34 22.26 Q 6.2 22.26 6.62 21.88 L 6.62 21.88 L 6.62 21.88 Q 7.04 21.5 7.15 20.84 L 7.15 20.84 L 7.15 20.84 Q 7.26 20.18 7.26 19.04 L 7.26 19.04 L 7.26 17.84 L 9.4 17.84 L 9.4 19.04 L 9.4 19.04 Q 9.4 21.46 8.49 22.75 L 8.49 22.75 L 8.49 22.75 Q 7.58 24.04 5.32 24.04 L 5.32 24.04 L 5.32 24.04 Z  M 13.46 24.02 L 13.46 24.02 Q 12.8 24.02 12.27 23.64 L 12.27 23.64 L 12.27 23.64 Q 11.74 23.26 11.44 22.64 L 11.44 22.64 L 11.44 22.64 Q 11.14 22.02 11.14 21.34 L 11.14 21.34 L 11.14 21.34 Q 11.14 19.98 11.72 19.13 L 11.72 19.13 L 11.72 19.13 Q 12.3 18.28 13.2 17.78 L 13.2 17.78 L 13.2 17.78 Q 14.1 17.28 15.7 16.64 L 15.7 16.64 L 15.7 15.82 L 15.7 15.82 Q 15.7 14.68 15.47 14.21 L 15.47 14.21 L 15.47 14.21 Q 15.24 13.74 14.54 13.74 L 14.54 13.74 L 14.54 13.74 Q 13.32 13.74 13.32 15.38 L 13.32 15.38 L 13.32 15.96 L 11.2 15.88 L 11.2 15.88 Q 11.24 13.96 12.08 13.05 L 12.08 13.05 L 12.08 13.05 Q 12.92 12.14 14.68 12.14 L 14.68 12.14 L 14.68 12.14 Q 16.34 12.14 17.09 13.05 L 17.09 13.05 L 17.09 13.05 Q 17.84 13.96 17.84 15.8 L 17.84 15.8 L 17.84 21.08 L 17.84 21.08 Q 17.84 22.38 18.04 23.86 L 18.04 23.86 L 16.08 23.86 L 16.08 23.86 Q 15.86 22.72 15.8 22.16 L 15.8 22.16 L 15.8 22.16 Q 15.56 22.94 14.97 23.48 L 14.97 23.48 L 14.97 23.48 Q 14.38 24.02 13.46 24.02 L 13.46 24.02 L 13.46 24.02 Z  M 14.3 22.18 L 14.3 22.18 Q 14.72 22.18 15.12 21.85 L 15.12 21.85 L 15.12 21.85 Q 15.52 21.52 15.7 21.22 L 15.7 21.22 L 15.7 17.94 L 15.7 17.94 Q 14.84 18.42 14.37 18.77 L 14.37 18.77 L 14.37 18.77 Q 13.9 19.12 13.59 19.58 L 13.59 19.58 L 13.59 19.58 Q 13.28 20.04 13.28 20.68 L 13.28 20.68 L 13.28 20.68 Q 13.28 21.4 13.54 21.79 L 13.54 21.79 L 13.54 21.79 Q 13.8 22.18 14.3 22.18 L 14.3 22.18 L 14.3 22.18 Z  M 22.82 24.02 L 22.82 24.02 Q 20.32 24.02 20.32 21.26 L 20.32 21.26 L 20.32 13.72 L 19.1 13.72 L 19.1 12.3 L 20.32 12.3 L 20.32 8.92 L 22.46 8.92 L 22.46 12.3 L 24.32 12.3 L 24.32 13.72 L 22.46 13.72 L 22.46 21.12 L 22.46 21.12 Q 22.46 21.82 22.68 22.1 L 22.68 22.1 L 22.68 22.1 Q 22.9 22.38 23.52 22.38 L 23.52 22.38 L 23.52 22.38 Q 23.92 22.38 24.3 22.32 L 24.3 22.32 L 24.3 23.9 L 24.3 23.9 Q 23.5 24.02 22.82 24.02 L 22.82 24.02 L 22.82 24.02 Z  M 29.9 24.04 L 29.9 24.04 Q 27.86 24.04 26.79 22.78 L 26.79 22.78 L 26.79 22.78 Q 25.72 21.52 25.6 19.32 L 25.6 19.32 L 27.6 18.78 L 27.6 18.78 Q 27.7 20.34 28.21 21.3 L 28.21 21.3 L 28.21 21.3 Q 28.72 22.26 29.9 22.26 L 29.9 22.26 L 29.9 22.26 Q 30.78 22.26 31.23 21.77 L 31.23 21.77 L 31.23 21.77 Q 31.68 21.28 31.68 20.36 L 31.68 20.36 L 31.68 20.36 Q 31.68 19.36 31.26 18.7 L 31.26 18.7 L 31.26 18.7 Q 30.84 18.04 29.92 17.24 L 29.92 17.24 L 27.2 14.84 L 27.2 14.84 Q 26.38 14.12 26.01 13.29 L 26.01 13.29 L 26.01 13.29 Q 25.64 12.46 25.64 11.26 L 25.64 11.26 L 25.64 11.26 Q 25.64 9.48 26.66 8.5 L 26.66 8.5 L 26.66 8.5 Q 27.68 7.52 29.44 7.52 L 29.44 7.52 L 29.44 7.52 Q 31.36 7.52 32.34 8.54 L 32.34 8.54 L 32.34 8.54 Q 33.32 9.56 33.52 11.7 L 33.52 11.7 L 31.6 12.22 L 31.6 12.22 Q 31.5 10.8 31.05 10.03 L 31.05 10.03 L 31.05 10.03 Q 30.6 9.26 29.44 9.26 L 29.44 9.26 L 29.44 9.26 Q 28.58 9.26 28.12 9.71 L 28.12 9.71 L 28.12 9.71 Q 27.66 10.16 27.66 11.04 L 27.66 11.04 L 27.66 11.04 Q 27.66 11.76 27.9 12.25 L 27.9 12.25 L 27.9 12.25 Q 28.14 12.74 28.72 13.24 L 28.72 13.24 L 31.46 15.64 L 31.46 15.64 Q 32.52 16.58 33.15 17.68 L 33.15 17.68 L 33.15 17.68 Q 33.78 18.78 33.78 20.18 L 33.78 20.18 L 33.78 20.18 Q 33.78 21.96 32.7 23 L 32.7 23 L 32.7 23 Q 31.62 24.04 29.9 24.04 L 29.9 24.04 L 29.9 24.04 Z  M 38.54 24.02 L 38.54 24.02 Q 36.7 24.02 35.93 22.93 L 35.93 22.93 L 35.93 22.93 Q 35.16 21.84 35.16 19.76 L 35.16 19.76 L 35.16 16.4 L 35.16 16.4 Q 35.16 14.32 35.93 13.23 L 35.93 13.23 L 35.93 13.23 Q 36.7 12.14 38.54 12.14 L 38.54 12.14 L 38.54 12.14 Q 40.36 12.14 41.13 13.23 L 41.13 13.23 L 41.13 13.23 Q 41.9 14.32 41.9 16.4 L 41.9 16.4 L 41.9 19.76 L 41.9 19.76 Q 41.9 21.84 41.13 22.93 L 41.13 22.93 L 41.13 22.93 Q 40.36 24.02 38.54 24.02 L 38.54 24.02 L 38.54 24.02 Z  M 38.54 22.44 L 38.54 22.44 Q 39.12 22.44 39.38 22.1 L 39.38 22.1 L 39.38 22.1 Q 39.64 21.76 39.7 21.26 L 39.7 21.26 L 39.7 21.26 Q 39.76 20.76 39.76 19.9 L 39.76 19.9 L 39.76 16.28 L 39.76 16.28 Q 39.76 15.42 39.7 14.91 L 39.7 14.91 L 39.7 14.91 Q 39.64 14.4 39.38 14.06 L 39.38 14.06 L 39.38 14.06 Q 39.12 13.72 38.54 13.72 L 38.54 13.72 L 38.54 13.72 Q 37.96 13.72 37.69 14.06 L 37.69 14.06 L 37.69 14.06 Q 37.42 14.4 37.36 14.91 L 37.36 14.91 L 37.36 14.91 Q 37.3 15.42 37.3 16.28 L 37.3 16.28 L 37.3 19.9 L 37.3 19.9 Q 37.3 20.76 37.36 21.26 L 37.36 21.26 L 37.36 21.26 Q 37.42 21.76 37.69 22.1 L 37.69 22.1 L 37.69 22.1 Q 37.96 22.44 38.54 22.44 L 38.54 22.44 L 38.54 22.44 Z  M 45.52 24.02 L 45.52 24.02 Q 44.58 24.02 44.18 23.34 L 44.18 23.34 L 44.18 23.34 Q 43.78 22.66 43.78 21.66 L 43.78 21.66 L 43.78 12.3 L 45.92 12.3 L 45.92 21.02 L 45.92 21.02 Q 45.92 21.68 46.12 22.01 L 46.12 22.01 L 46.12 22.01 Q 46.32 22.34 46.84 22.34 L 46.84 22.34 L 46.84 22.34 Q 47.48 22.34 48.34 21.62 L 48.34 21.62 L 48.34 12.3 L 50.48 12.3 L 50.48 23.86 L 48.34 23.86 L 48.34 22.72 L 48.34 22.72 Q 46.96 24.02 45.52 24.02 L 45.52 24.02 L 45.52 24.02 Z  M 52.72 23.86 L 52.72 12.3 L 54.86 12.3 L 54.86 13.94 L 54.86 13.94 Q 55.46 12.96 56.09 12.56 L 56.09 12.56 L 56.09 12.56 Q 56.72 12.16 57.42 12.16 L 57.42 12.16 L 57.42 12.16 Q 57.6 12.16 57.76 12.18 L 57.76 12.18 L 57.76 14.54 L 57.76 14.54 Q 57.12 14.3 56.58 14.3 L 56.58 14.3 L 56.58 14.3 Q 56.06 14.3 55.65 14.55 L 55.65 14.55 L 55.65 14.55 Q 55.24 14.8 54.86 15.42 L 54.86 15.42 L 54.86 23.86 L 52.72 23.86 L 52.72 23.86 Z  M 62.24 24.02 L 62.24 24.02 Q 60.88 24.02 60.14 23.47 L 60.14 23.47 L 60.14 23.47 Q 59.4 22.92 59.13 21.93 L 59.13 21.93 L 59.13 21.93 Q 58.86 20.94 58.86 19.42 L 58.86 19.42 L 58.86 16.76 L 58.86 16.76 Q 58.86 15.2 59.13 14.2 L 59.13 14.2 L 59.13 14.2 Q 59.4 13.2 60.14 12.67 L 60.14 12.67 L 60.14 12.67 Q 60.88 12.14 62.24 12.14 L 62.24 12.14 L 62.24 12.14 Q 63.48 12.14 64.17 12.54 L 64.17 12.54 L 64.17 12.54 Q 64.86 12.94 65.13 13.73 L 65.13 13.73 L 65.13 13.73 Q 65.4 14.52 65.4 15.78 L 65.4 15.78 L 65.4 16.46 L 63.46 16.46 L 63.46 15.76 L 63.46 15.76 Q 63.46 14.62 63.21 14.17 L 63.21 14.17 L 63.21 14.17 Q 62.96 13.72 62.26 13.72 L 62.26 13.72 L 62.26 13.72 Q 61.72 13.72 61.46 13.96 L 61.46 13.96 L 61.46 13.96 Q 61.2 14.2 61.1 14.74 L 61.1 14.74 L 61.1 14.74 Q 61 15.28 61 16.32 L 61 16.32 L 61 19.96 L 61 19.96 Q 61 20.96 61.12 21.49 L 61.12 21.49 L 61.12 21.49 Q 61.24 22.02 61.51 22.23 L 61.51 22.23 L 61.51 22.23 Q 61.78 22.44 62.28 22.44 L 62.28 22.44 L 62.28 22.44 Q 63.02 22.44 63.24 21.95 L 63.24 21.95 L 63.24 21.95 Q 63.46 21.46 63.46 20.44 L 63.46 20.44 L 63.46 19.5 L 65.4 19.5 L 65.4 20.3 L 65.4 20.3 Q 65.4 22.18 64.71 23.1 L 64.71 23.1 L 64.71 23.1 Q 64.02 24.02 62.24 24.02 L 62.24 24.02 L 62.24 24.02 Z  M 70.5 24.02 L 70.5 24.02 Q 69.16 24.02 68.42 23.51 L 68.42 23.51 L 68.42 23.51 Q 67.68 23 67.38 22 L 67.38 22 L 67.38 22 Q 67.08 21 67.08 19.4 L 67.08 19.4 L 67.08 16.76 L 67.08 16.76 Q 67.08 14.36 67.83 13.25 L 67.83 13.25 L 67.83 13.25 Q 68.58 12.14 70.5 12.14 L 70.5 12.14 L 70.5 12.14 Q 71.9 12.14 72.61 12.72 L 72.61 12.72 L 72.61 12.72 Q 73.32 13.3 73.55 14.35 L 73.55 14.35 L 73.55 14.35 Q 73.78 15.4 73.78 17.18 L 73.78 17.18 L 73.78 18.12 L 69.22 18.12 L 69.22 20.44 L 69.22 20.44 Q 69.22 21.5 69.53 21.97 L 69.53 21.97 L 69.53 21.97 Q 69.84 22.44 70.52 22.44 L 70.52 22.44 L 70.52 22.44 Q 71.2 22.44 71.44 21.97 L 71.44 21.97 L 71.44 21.97 Q 71.68 21.5 71.68 20.54 L 71.68 20.54 L 71.68 19.84 L 73.76 19.84 L 73.76 20.28 L 73.76 20.28 Q 73.76 22.1 72.98 23.06 L 72.98 23.06 L 72.98 23.06 Q 72.2 24.02 70.5 24.02 L 70.5 24.02 L 70.5 24.02 Z  M 69.22 16.96 L 71.68 16.96 L 71.68 15.92 L 71.68 15.92 Q 71.68 14.74 71.45 14.23 L 71.45 14.23 L 71.45 14.23 Q 71.22 13.72 70.48 13.72 L 70.48 13.72 L 70.48 13.72 Q 69.96 13.72 69.69 13.96 L 69.69 13.96 L 69.69 13.96 Q 69.42 14.2 69.32 14.75 L 69.32 14.75 L 69.32 14.75 Q 69.22 15.3 69.22 16.34 L 69.22 16.34 L 69.22 16.96 L 69.22 16.96 Z " fill="rgb(255,255,255)"/></svg>